<svg xmlns="http://www.w3.org/2000/svg" viewBox="0 0 977.31 72.02"><defs><style>.cls-1{fill:#022456;}</style></defs><g id="Layer_2" data-name="Layer 2"><g id="Layer_1-2" data-name="Layer 1"><path class="cls-1" d="M53.23,10.58A37,37,0,0,0,41.84,2.87,34.84,34.84,0,0,0,27.93,0H4.08l0,.05H0V71.79H13.67v0H27.93a34.52,34.52,0,0,0,13.91-2.87,36.43,36.43,0,0,0,11.47-7.72A39.16,39.16,0,0,0,61,49.69a34,34,0,0,0,2.78-13.82A34,34,0,0,0,61,22.06,38.06,38.06,0,0,0,53.23,10.58ZM50,45.11a25.78,25.78,0,0,1-5.12,7.62,23.44,23.44,0,0,1-7.62,5.21,24.8,24.8,0,0,1-9.33,1.79H16l-2.34,2.35V9.67L16,12H27.93a24.49,24.49,0,0,1,9.24,1.79A25.08,25.08,0,0,1,44.79,19,24.48,24.48,0,0,1,50,26.64a23.62,23.62,0,0,1,0,18.47Z"/><polygon class="cls-1" points="138.32 1.88 121.89 1.88 91.67 32.02 86.77 36.91 91.67 41.72 121.89 71.77 138.32 71.77 103.37 36.83 138.32 1.88"/><polygon class="cls-1" points="72.53 1.64 72.53 71.53 85.86 71.53 85.86 36.67 85.86 1.64 72.53 1.64"/><path class="cls-1" d="M200.38,38.31a22.06,22.06,0,0,0,4.11-13.19A22.54,22.54,0,0,0,197.67,8.7a22.39,22.39,0,0,0-16.42-6.82H150.59V71.77h13.32V13.59h17.34a11.11,11.11,0,0,1,8.13,3.4,10.89,10.89,0,0,1,3.49,8.13,11.12,11.12,0,0,1-3.49,8.3,11.12,11.12,0,0,1-8.13,3.41l-10.4-.09,20.27,35h13.37L190.16,46.7A22.54,22.54,0,0,0,200.38,38.31Z"/><polyline class="cls-1" points="220 1.9 216.88 1.9 216.88 71.79 230.21 71.75 266.53 71.75 266.53 60.04 231.58 60.04 230.21 61.31 230.21 42.66 231.58 42.66 266.53 42.66 266.53 31.04 231.58 31.04 230.21 31.04 230.21 12.18 231.58 13.56 266.53 13.56 266.53 1.86"/><polyline class="cls-1" points="517.79 1.9 514.67 1.9 514.67 71.79 527.99 71.75 564.31 71.75 564.31 60.04 529.37 60.04 527.99 61.31 527.99 42.66 529.37 42.66 564.31 42.66 564.31 31.04 529.37 31.04 527.99 31.04 527.99 12.18 529.37 13.56 564.31 13.56 564.31 1.86"/><path class="cls-1" d="M422.9,60.07l-11.62,11.7V1.88L422.9,13.41Z"/><polygon class="cls-1" points="473.43 58.67 501.83 1.88 488.81 1.88 466.9 45.63 444.97 1.88 431.95 1.88 462.28 62.48 466.88 71.77 472.01 61.51 473.44 58.68 473.43 58.67"/><polygon class="cls-1" points="363.92 1.88 340.71 1.88 340.71 13.59 363.92 13.59 363.92 71.77 375.63 71.77 375.63 13.59 398.87 13.59 398.87 1.88 363.92 1.88"/><polyline class="cls-1" points="337.2 48.45 337.16 48.45 313.88 1.88 278.93 71.77 291.86 71.77 297.8 60.06 303.57 48.53 313.88 28 324.06 48.45 313.99 48.45 313.99 60.15 330.04 60.15 335.81 71.77 348.82 71.77 342.97 60.15"/><path class="cls-1" d="M664.44,51.53a20.52,20.52,0,0,0-20.52-20.44H626.46a8.48,8.48,0,0,1-6.32-2.63,8.67,8.67,0,0,1-2.45-6.56,8.59,8.59,0,0,1,.66-3.12,8.79,8.79,0,0,1,1.79-2.69,8.15,8.15,0,0,1,2.9-1.93,7.46,7.46,0,0,1,1.35-.36,17.18,17.18,0,0,1,3.28-.3h28.84V1.79H626.4A19.43,19.43,0,0,0,612,7.85a19.79,19.79,0,0,0-6,14.38,20,20,0,0,0,6,14.56,19.7,19.7,0,0,0,14.47,6h17.46a8.46,8.46,0,0,1,6.23,2.63A8.52,8.52,0,0,1,652.07,55a7.72,7.72,0,0,1-1.84,2.81,8,8,0,0,1-2.89,1.84c-1.06.44-2.19.58-7.41.58H613.78V72h30.41a20.5,20.5,0,0,0,20.25-20.44Z"/><path class="cls-1" d="M859.41,12.11a36.14,36.14,0,0,0-11.15-7.55,33.89,33.89,0,0,0-13.6-2.81H811.31l0,0h-4V72H820.7v0h14a33.58,33.58,0,0,0,13.6-2.81,35.76,35.76,0,0,0,11.24-7.54,38.34,38.34,0,0,0,7.55-11.24,33.27,33.27,0,0,0,2.72-13.52,33.3,33.3,0,0,0-2.72-13.52A36.75,36.75,0,0,0,859.41,12.11ZM856.25,45.9a25.38,25.38,0,0,1-5,7.46,22.91,22.91,0,0,1-7.46,5.09,24,24,0,0,1-9.13,1.76H823l-2.28,2.3V11.21l2.28,2.3h11.68a24.06,24.06,0,0,1,9,1.76,24.45,24.45,0,0,1,7.46,5.09,24,24,0,0,1,5.09,7.46,23.13,23.13,0,0,1,0,18.08Z"/><path class="cls-1" d="M783.17,42.76a17,17,0,0,1-5.26,12.29,17.43,17.43,0,0,1-29.85-12.29v-41H736.39v41a28.39,28.39,0,0,0,8.51,20.72,29.37,29.37,0,0,0,41.35,0,28,28,0,0,0,8.6-20.72v-41H783.24Z"/><path class="cls-1" d="M893.79,60.23,882.11,72V1.77l11.68,11.59Z"/><path class="cls-1" d="M966.87,12.15a33.52,33.52,0,0,1,10.44,24.73,33.26,33.26,0,0,1-10.44,24.74,34.73,34.73,0,0,1-49.47,0A33.63,33.63,0,0,1,907,36.88,33.75,33.75,0,0,1,917.4,12.15a34.71,34.71,0,0,1,49.47,0Zm-41.32,8.24a22.44,22.44,0,0,0-6.75,16.49,23.07,23.07,0,0,0,23.33,23.34,22.48,22.48,0,0,0,16.5-6.76,22.51,22.51,0,0,0,6.84-16.58,22.53,22.53,0,0,0-6.84-16.49,23.42,23.42,0,0,0-33.08,0Z"/><polygon class="cls-1" points="689.1 1.77 665.77 1.77 665.77 13.53 689.1 13.53 689.1 72 700.86 72 700.86 13.53 724.21 13.53 724.21 1.77 689.1 1.77"/></g></g></svg>