<svg width="64" height="64" viewBox="0 0 64 64" fill="none" xmlns="http://www.w3.org/2000/svg">
<path fill-rule="evenodd" clip-rule="evenodd" d="M11.156 21.132L27.304 13.052C28.6928 12.359 30.2239 11.9989 31.776 12H32.224C33.776 12 35.304 12.36 36.696 13.056L52.844 21.132C53.1911 21.3053 53.483 21.5719 53.687 21.9019C53.891 22.2318 53.9991 22.6121 53.9991 23C53.9991 23.3879 53.891 23.7682 53.687 24.0981C53.483 24.4281 53.1911 24.6947 52.844 24.868L36.696 32.948C35.3072 33.641 33.7761 34.0011 32.224 34H31.776C30.2236 33.9999 28.6925 33.6384 27.304 32.944L11.16 24.868C10.8142 24.6936 10.5235 24.4267 10.3204 24.0969C10.1174 23.767 10.0098 23.3873 10.0098 23C10.0098 22.6127 10.1174 22.233 10.3204 21.9032C10.5235 21.5733 10.8102 21.3064 11.156 21.132ZM4 23C4 19.936 5.732 17.136 8.472 15.764L24.62 7.688C26.8432 6.57687 29.2946 5.99893 31.78 6H32.22C34.7054 5.99893 37.1568 6.57687 39.38 7.688L55.528 15.764C56.8712 16.4364 58.0008 17.4694 58.7902 18.7474C59.5796 20.0254 59.9977 21.4979 59.9977 23C59.9977 24.5021 59.5796 25.9746 58.7902 27.2526C58.0008 28.5306 56.8712 29.5636 55.528 30.236L52 31.996L55.528 33.764C56.8712 34.4364 58.0008 35.4694 58.7902 36.7474C59.5796 38.0254 59.9977 39.4979 59.9977 41C59.9977 42.5021 59.5796 43.9746 58.7902 45.2526C58.0008 46.5306 56.8712 47.5636 55.528 48.236L39.38 56.312C37.1568 57.4231 34.7054 58.0011 32.22 58H31.78C29.2946 58.0011 26.8432 57.4231 24.62 56.312L8.472 48.232C7.12982 47.5592 6.00128 46.5262 5.21261 45.2487C4.42395 43.9711 4.00626 42.4994 4.00626 40.998C4.00626 39.4966 4.42395 38.0249 5.21261 36.7473C6.00128 35.4698 7.12982 34.4368 8.472 33.764L12 32L8.472 30.236C7.12747 29.565 5.99669 28.5324 5.2067 27.2541C4.41672 25.9759 3.99883 24.5027 4 23ZM18.708 35.352L11.156 39.132C10.8102 39.3064 10.5195 39.5733 10.3164 39.9031C10.1134 40.233 10.0058 40.6127 10.0058 41C10.0058 41.3873 10.1134 41.767 10.3164 42.0969C10.5195 42.4267 10.8102 42.6936 11.156 42.868L27.304 50.944C28.6925 51.6384 30.2236 51.9999 31.776 52H32.224C33.7764 51.9999 35.3075 51.6384 36.696 50.944L52.844 42.868C53.1899 42.6936 53.4805 42.4267 53.6836 42.0969C53.8867 41.767 53.9942 41.3873 53.9942 41C53.9942 40.6127 53.8867 40.233 53.6836 39.9031C53.4805 39.5733 53.1899 39.3064 52.844 39.132L45.292 35.352L39.38 38.312C37.1568 39.4231 34.7054 40.0011 32.22 40H31.78C29.2946 40.0011 26.8432 39.4231 24.62 38.312L18.708 35.352Z" fill="#022456"/>
</svg>
