<svg width="64" height="64" viewBox="0 0 64 64" fill="none" xmlns="http://www.w3.org/2000/svg">
<path fill-rule="evenodd" clip-rule="evenodd" d="M40.872 12.8639C41.073 12.1106 40.9728 11.3087 40.5927 10.628C40.2126 9.94733 39.5825 9.44133 38.8358 9.21721C38.0891 8.99309 37.2844 9.06846 36.5923 9.42736C35.9002 9.78625 35.375 10.4005 35.128 11.1399L23.128 51.1399C22.9325 51.8916 23.0362 52.6898 23.4172 53.3666C23.7982 54.0434 24.4268 54.546 25.1709 54.7688C25.9149 54.9916 26.7163 54.9172 27.4066 54.5612C28.0969 54.2051 28.6222 53.5953 28.872 52.8599L40.872 12.8639ZM18.12 19.8799C18.6818 20.4424 18.9973 21.2049 18.9973 21.9999C18.9973 22.7949 18.6818 23.5574 18.12 24.1199L10.24 31.9999L18.12 39.8799C18.6499 40.4486 18.9384 41.2008 18.9247 41.978C18.911 42.7552 18.5961 43.4967 18.0465 44.0464C17.4968 44.596 16.7553 44.9109 15.9781 44.9246C15.2009 44.9383 14.4487 44.6498 13.88 44.1199L3.87998 34.1199C3.31818 33.5574 3.00262 32.7949 3.00262 31.9999C3.00262 31.2049 3.31818 30.4424 3.87998 29.8799L13.88 19.8799C14.4425 19.3181 15.205 19.0025 16 19.0025C16.795 19.0025 17.5575 19.3181 18.12 19.8799ZM45.88 44.1199C45.3182 43.5574 45.0026 42.7949 45.0026 41.9999C45.0026 41.2049 45.3182 40.4424 45.88 39.8799L53.76 31.9999L45.88 24.1199C45.3501 23.5512 45.0616 22.799 45.0753 22.0218C45.089 21.2446 45.4038 20.5031 45.9535 19.9534C46.5032 19.4038 47.2447 19.0889 48.0219 19.0752C48.7991 19.0615 49.5513 19.35 50.12 19.8799L60.12 29.8799C60.6818 30.4424 60.9973 31.2049 60.9973 31.9999C60.9973 32.7949 60.6818 33.5574 60.12 34.1199L50.12 44.1199C49.5575 44.6817 48.795 44.9973 48 44.9973C47.205 44.9973 46.4425 44.6817 45.88 44.1199Z" fill="#022456"/>
</svg>
