<svg width="64" height="64" viewBox="0 0 64 64" fill="none" xmlns="http://www.w3.org/2000/svg">
<path fill-rule="evenodd" clip-rule="evenodd" d="M12.072 12.272L13.58 18L18.32 36.02C18.7685 37.7253 19.5872 39.3107 20.718 40.6636C21.8488 42.0165 23.2638 43.1036 24.8624 43.8475C26.461 44.5915 28.2039 44.974 29.9672 44.9678C31.7304 44.9617 33.4706 44.5671 35.064 43.812L53.136 35.252C55.1893 34.2796 56.9244 32.7444 58.1395 30.8247C59.3546 28.905 59.9997 26.6799 60 24.408V20C60 17.8783 59.1571 15.8434 57.6569 14.3431C56.1566 12.8429 54.1217 12 52 12H18.224L17.624 9.86C17.1564 8.17571 16.1501 6.69092 14.7588 5.63268C13.3676 4.57443 11.668 4.00098 9.92 4H3C2.20435 4 1.44129 4.31607 0.87868 4.87868C0.31607 5.44129 0 6.20435 0 7C0 7.79565 0.31607 8.55871 0.87868 9.12132C1.44129 9.68393 2.20435 10 3 10H9.92C10.3572 9.99975 10.7825 10.1428 11.1307 10.4072C11.4789 10.6716 11.7308 11.0428 11.848 11.464L12.072 12.272ZM32.496 38.392L50.568 29.832C51.595 29.3457 52.4627 28.5777 53.0703 27.6175C53.6778 26.6573 54.0003 25.5443 54 24.408V20C54 19.4696 53.7893 18.9609 53.4142 18.5858C53.0391 18.2107 52.5304 18 52 18H19.784L24.12 34.496C24.3447 35.3483 24.7544 36.1406 25.32 36.8166C25.8856 37.4926 26.5932 38.0356 27.3924 38.4072C28.1917 38.7788 29.063 38.9697 29.9443 38.9664C30.8257 38.963 31.6956 38.7656 32.492 38.388M48 59C49.8565 59 51.637 58.2625 52.9497 56.9497C54.2625 55.637 55 53.8565 55 52C55 50.1435 54.2625 48.363 52.9497 47.0503C51.637 45.7375 49.8565 45 48 45C46.1435 45 44.363 45.7375 43.0503 47.0503C41.7375 48.363 41 50.1435 41 52C41 53.8565 41.7375 55.637 43.0503 56.9497C44.363 58.2625 46.1435 59 48 59ZM19 52C19 52.9193 18.8189 53.8295 18.4672 54.6788C18.1154 55.5281 17.5998 56.2997 16.9497 56.9497C16.2997 57.5998 15.5281 58.1154 14.6788 58.4672C13.8295 58.8189 12.9193 59 12 59C11.0807 59 10.1705 58.8189 9.32122 58.4672C8.47194 58.1154 7.70026 57.5998 7.05025 56.9497C6.40024 56.2997 5.88463 55.5281 5.53284 54.6788C5.18106 53.8295 5 52.9193 5 52C5 50.1435 5.7375 48.363 7.05025 47.0503C8.36301 45.7375 10.1435 45 12 45C13.8565 45 15.637 45.7375 16.9497 47.0503C18.2625 48.363 19 50.1435 19 52Z" fill="#022456"/>
</svg>
