<svg width="32" height="32" viewBox="0 0 32 32" fill="none" xmlns="http://www.w3.org/2000/svg">
<path d="M22.1779 0H9.8221C4.3975 0 0 4.31005 0 9.62677V22.3732C0 27.6899 4.3975 32 9.8221 32H22.1779C27.6025 32 32 27.6899 32 22.3732V9.62677C32 4.31005 27.6025 0 22.1779 0Z" fill="url(#paint0_linear_938_3281)"/>
<path d="M28.8341 7.81225H24.9847L17.9022 14.8742L16.8003 15.9762C16.8083 14.9018 16.5923 13.8371 16.1655 12.8474C15.7408 11.8742 15.1369 10.9859 14.384 10.227C13.6373 9.48615 12.7555 8.88906 11.7843 8.4667C10.7868 8.03424 9.70794 7.81131 8.61719 7.81225H3.16707L5.88949 10.5542H8.61191C9.33639 10.5534 10.0539 10.6927 10.7233 10.9643C12.0397 11.5446 13.0847 12.5897 13.6503 13.8912C13.9343 14.5595 14.0804 15.2762 14.0804 16.0001C14.0804 16.724 13.9343 17.4407 13.6503 18.109C13.3692 18.7518 12.9743 19.3407 12.4837 19.8486C11.9901 20.3541 11.3983 20.7578 10.7431 21.0359C10.0682 21.3091 9.34475 21.4485 8.61455 21.4459H5.88949L3.16707 24.1866H8.61191C9.70289 24.1897 10.7822 23.9667 11.779 23.5322C12.7596 23.1161 13.6491 22.5184 14.3985 21.7719C15.1384 21.007 15.7344 20.1198 16.1589 19.1514C16.5807 18.1739 16.7962 17.1228 16.7924 16.0615L17.8956 17.1454L24.9847 24.1866H28.8341L20.6457 15.9994L28.8341 7.81225Z" fill="white"/>
<defs>
<linearGradient id="paint0_linear_938_3281" x1="0" y1="16.0006" x2="32" y2="16.0006" gradientUnits="userSpaceOnUse">
<stop stop-color="#04317A"/>
<stop offset="1" stop-color="#022254"/>
</linearGradient>
</defs>
</svg>
