<svg width="24" height="24" viewBox="0 0 24 24" fill="none" xmlns="http://www.w3.org/2000/svg">
<path fill-rule="evenodd" clip-rule="evenodd" d="M12 2.00391C9.284 2.00391 8.944 2.01591 7.877 2.06391C6.813 2.11291 6.086 2.28191 5.45 2.52891C4.78247 2.77972 4.17773 3.17321 3.678 3.68191C3.16931 4.18164 2.77582 4.78638 2.525 5.45391C2.278 6.08991 2.109 6.81691 2.06 7.88091C2.011 8.94791 2 9.28791 2 12.0039C2 14.7199 2.011 15.0599 2.06 16.1269C2.109 17.1909 2.278 17.9179 2.525 18.5539C2.77582 19.2214 3.16931 19.8262 3.678 20.3259C4.17773 20.8346 4.78247 21.2281 5.45 21.4789C6.086 21.7259 6.813 21.8949 7.877 21.9439C8.944 21.9919 9.284 22.0039 12 22.0039C14.716 22.0039 15.056 21.9919 16.123 21.9439C17.187 21.8949 17.914 21.7259 18.55 21.4789C19.2175 21.2281 19.8223 20.8346 20.322 20.3259C20.8307 19.8262 21.2242 19.2214 21.475 18.5539C21.722 17.9179 21.891 17.1909 21.94 16.1269C21.988 15.0599 22 14.7199 22 12.0039C22 9.28791 21.988 8.94791 21.94 7.88091C21.891 6.81691 21.722 6.08991 21.475 5.45391C21.2242 4.78638 20.8307 4.18164 20.322 3.68191C19.8223 3.17321 19.2175 2.77972 18.55 2.52891C17.914 2.28191 17.187 2.11291 16.123 2.06391C15.056 2.01591 14.716 2.00391 12 2.00391ZM12 3.80591C14.67 3.80591 14.986 3.81591 16.04 3.86391C17.016 3.90891 17.545 4.07091 17.898 4.20791C18.364 4.38991 18.698 4.60691 19.048 4.95591C19.398 5.30591 19.614 5.63991 19.796 6.10591C19.932 6.45891 20.096 6.98791 20.14 7.96291C20.188 9.01791 20.198 9.33291 20.198 12.0039C20.198 14.6739 20.188 14.9899 20.14 16.0439C20.095 17.0199 19.932 17.5489 19.796 17.9019C19.6357 18.3363 19.3801 18.7292 19.048 19.0519C18.698 19.4019 18.364 19.6179 17.898 19.7999C17.545 19.9359 17.016 20.0999 16.041 20.1439C14.987 20.1919 14.671 20.2019 12 20.2019C9.33 20.2019 9.013 20.1919 7.96 20.1439C6.984 20.0989 6.455 19.9359 6.102 19.7999C5.66762 19.6396 5.27466 19.384 4.952 19.0519C4.61991 18.7292 4.36432 18.3363 4.204 17.9019C4.067 17.5489 3.904 17.0199 3.86 16.0449C3.812 14.9899 3.802 14.6749 3.802 12.0039C3.802 9.33391 3.812 9.01791 3.86 7.96391C3.905 6.98791 4.067 6.45891 4.204 6.10591C4.386 5.63991 4.603 5.30591 4.952 4.95591C5.302 4.60591 5.636 4.38991 6.102 4.20791C6.455 4.07091 6.984 3.90791 7.959 3.86391C9.014 3.81591 9.329 3.80591 12 3.80591ZM12 15.3369C11.116 15.3369 10.2683 14.9858 9.64321 14.3607C9.01815 13.7356 8.667 12.8879 8.667 12.0039C8.667 11.1199 9.01815 10.2722 9.64321 9.64712C10.2683 9.02206 11.116 8.67091 12 8.67091C12.884 8.67091 13.7317 9.02206 14.3568 9.64712C14.9818 10.2722 15.333 11.1199 15.333 12.0039C15.333 12.8879 14.9818 13.7356 14.3568 14.3607C13.7317 14.9858 12.884 15.3369 12 15.3369ZM12 6.86891C11.3257 6.86891 10.6579 7.00173 10.0349 7.25978C9.41191 7.51784 8.84584 7.89608 8.36901 8.37291C7.89218 8.84974 7.51394 9.41582 7.25588 10.0388C6.99782 10.6618 6.865 11.3296 6.865 12.0039C6.865 12.6782 6.99782 13.346 7.25588 13.969C7.51394 14.592 7.89218 15.1581 8.36901 15.6349C8.84584 16.1117 9.41191 16.49 10.0349 16.748C10.6579 17.0061 11.3257 17.1389 12 17.1389C13.3619 17.1389 14.668 16.5979 15.631 15.6349C16.594 14.6719 17.135 13.3658 17.135 12.0039C17.135 10.642 16.594 9.33591 15.631 8.37291C14.668 7.40991 13.3619 6.86891 12 6.86891ZM18.538 6.66591C18.538 6.82349 18.507 6.97954 18.4467 7.12513C18.3863 7.27072 18.298 7.403 18.1865 7.51443C18.0751 7.62586 17.9428 7.71426 17.7972 7.77456C17.6516 7.83487 17.4956 7.86591 17.338 7.86591C17.1804 7.86591 17.0244 7.83487 16.8788 7.77456C16.7332 7.71426 16.6009 7.62586 16.4895 7.51443C16.378 7.403 16.2897 7.27072 16.2293 7.12513C16.169 6.97954 16.138 6.82349 16.138 6.66591C16.138 6.34765 16.2644 6.04242 16.4895 5.81738C16.7145 5.59233 17.0197 5.46591 17.338 5.46591C17.6563 5.46591 17.9615 5.59233 18.1865 5.81738C18.4116 6.04242 18.538 6.34765 18.538 6.66591Z" fill="#022456"/>
</svg>
