<svg width="32" height="32" viewBox="0 0 32 32" fill="none" xmlns="http://www.w3.org/2000/svg">
<path d="M5.33335 13.3369V24.0036H26.6667V13.3369L16 17.3369L5.33335 13.3369ZM5.33335 8.00358V10.6702L16 14.6702L26.6667 10.6702V8.00358H5.33335ZM5.33335 5.33691H26.6667C27.3739 5.33691 28.0522 5.61787 28.5523 6.11796C29.0524 6.61806 29.3334 7.29634 29.3334 8.00358V24.0036C29.3334 24.7108 29.0524 25.3891 28.5523 25.8892C28.0522 26.3893 27.3739 26.6702 26.6667 26.6702H5.33335C4.62611 26.6702 3.94783 26.3893 3.44774 25.8892C2.94764 25.3891 2.66669 24.7108 2.66669 24.0036V8.00358C2.66669 7.29634 2.94764 6.61806 3.44774 6.11796C3.94783 5.61787 4.62611 5.33691 5.33335 5.33691Z" fill="#022456"/>
</svg>
