<svg xmlns="http://www.w3.org/2000/svg" xmlns:xlink="http://www.w3.org/1999/xlink" viewBox="0 0 850.95 247.41"><defs><style>.cls-1{fill:url(#linear-gradient);}.cls-2{fill:#fff;}.cls-3{fill:#022456;}</style><linearGradient id="linear-gradient" y1="123.71" x2="242.49" y2="123.71" gradientUnits="userSpaceOnUse"><stop offset="0" stop-color="#04317a"/><stop offset="1" stop-color="#022254"/></linearGradient></defs><g id="Layer_2" data-name="Layer 2"><g id="Layer_1-2" data-name="Layer 1"><g id="Primary_Logo_Lockup_Wordmark" data-name="Primary Logo Lockup &amp; Wordmark"><rect class="cls-1" width="242.49" height="247.41" rx="74.43"/><path class="cls-2" d="M218.5,60.4H189.33L135.66,115l-8.35,8.52a61,61,0,0,0-4.81-24.19A66.67,66.67,0,0,0,109,79.07a64.41,64.41,0,0,0-19.7-13.61,59.2,59.2,0,0,0-24-5.06H24L44.63,81.6H65.26a41.71,41.71,0,0,1,16,3.17,43.51,43.51,0,0,1,22.18,22.63,42.41,42.41,0,0,1,0,32.61,45.82,45.82,0,0,1-8.84,13.45,40.59,40.59,0,0,1-13.19,9.18,41.87,41.87,0,0,1-16.13,3.17H44.63L24,187H65.26a58.64,58.64,0,0,0,24-5.06,62.92,62.92,0,0,0,19.85-13.61,69.1,69.1,0,0,0,13.34-20.26,60.78,60.78,0,0,0,4.8-23.89l8.36,8.38L189.33,187H218.5l-62.05-63.3Z"/><path class="cls-3" d="M339.86,51.37a37.11,37.11,0,0,0-11.39-7.72,34.79,34.79,0,0,0-13.9-2.87H290.71l.05,0h-4.12v71.75h13.67v0h14.26a34.31,34.31,0,0,0,13.9-2.87A36.28,36.28,0,0,0,340,102a39.11,39.11,0,0,0,7.71-11.48,35.69,35.69,0,0,0,0-27.62A37.57,37.57,0,0,0,339.86,51.37ZM336.63,85.9a25.75,25.75,0,0,1-5.11,7.62,23.57,23.57,0,0,1-7.62,5.2,24.61,24.61,0,0,1-9.33,1.79H302.64l-2.33,2.35V50.45l2.33,2.35h11.93a24.49,24.49,0,0,1,9.24,1.8,24.9,24.9,0,0,1,7.62,5.2,24.41,24.41,0,0,1,5.2,7.62,23.53,23.53,0,0,1,0,18.48Z"/><polygon class="cls-3" points="424.95 42.66 408.53 42.66 378.3 72.81 373.41 77.7 378.3 82.5 408.53 112.56 424.95 112.56 390.01 77.61 424.95 42.66"/><polygon class="cls-3" points="359.17 42.42 359.17 112.32 372.49 112.32 372.49 77.46 372.49 42.42 359.17 42.42"/><path class="cls-3" d="M487,79.1a22.09,22.09,0,0,0,4.11-13.2,23.27,23.27,0,0,0-23.24-23.23H437.22v69.89h13.32V54.37h17.35A11.1,11.1,0,0,1,476,57.78a10.85,10.85,0,0,1,3.5,8.12,11.8,11.8,0,0,1-11.62,11.71l-10.4-.09,20.27,35h13.37L476.8,87.48A22.52,22.52,0,0,0,487,79.1Z"/><polyline class="cls-3" points="506.64 42.69 503.52 42.69 503.52 112.58 516.84 112.53 553.16 112.53 553.16 100.83 518.22 100.83 516.84 102.1 516.84 83.44 518.22 83.44 553.16 83.44 553.16 71.82 518.22 71.82 516.84 71.82 516.84 52.96 518.22 54.35 553.16 54.35 553.16 42.64"/><polyline class="cls-3" points="804.43 42.69 801.31 42.69 801.31 112.58 814.63 112.53 850.95 112.53 850.95 100.83 816 100.83 814.63 102.1 814.63 83.44 816 83.44 850.95 83.44 850.95 71.82 816 71.82 814.63 71.82 814.63 52.96 816 54.35 850.95 54.35 850.95 42.64"/><path class="cls-3" d="M709.53,100.85l-11.62,11.71V42.66L709.53,54.2Z"/><polygon class="cls-3" points="760.07 99.45 788.46 42.66 775.45 42.66 753.54 86.41 731.61 42.67 718.59 42.67 748.91 103.26 753.52 112.56 758.65 102.29 760.08 99.46 760.07 99.45"/><polygon class="cls-3" points="650.56 42.66 627.35 42.66 627.35 54.37 650.56 54.37 650.56 112.56 662.27 112.56 662.27 54.37 685.51 54.37 685.51 42.66 650.56 42.66"/><polyline class="cls-3" points="623.84 89.23 623.8 89.23 600.52 42.66 565.57 112.56 578.5 112.56 584.44 100.85 590.21 89.32 600.52 68.79 610.69 89.23 600.63 89.23 600.63 100.94 616.68 100.94 622.44 112.56 635.46 112.56 629.61 100.94"/><path class="cls-3" d="M345.06,186.14a20.52,20.52,0,0,0-20.53-20.44H307.08a8.46,8.46,0,0,1-6.32-2.63,8.67,8.67,0,0,1-2.45-6.56,8.39,8.39,0,0,1,.66-3.12,8.5,8.5,0,0,1,1.79-2.69,8,8,0,0,1,2.9-1.93,7.24,7.24,0,0,1,1.35-.36,17.18,17.18,0,0,1,3.28-.3h28.84V136.4H307a19.51,19.51,0,0,0-14.41,6.06,19.78,19.78,0,0,0-6,14.38,20,20,0,0,0,6,14.56,19.73,19.73,0,0,0,14.48,6h17.45a8.43,8.43,0,0,1,6.23,2.63,8.55,8.55,0,0,1,1.93,9.56,7.85,7.85,0,0,1-1.84,2.81,8.23,8.23,0,0,1-2.9,1.84c-1.05.44-2.19.58-7.41.58H294.39v11.79h30.42a20.5,20.5,0,0,0,20.25-20.44Z"/><path class="cls-3" d="M540,146.72a36.25,36.25,0,0,0-11.15-7.55,33.91,33.91,0,0,0-13.61-2.81H491.92l.05,0h-4v70.23h13.39v0h13.95a33.59,33.59,0,0,0,13.61-2.81,35.57,35.57,0,0,0,11.23-7.55A38.16,38.16,0,0,0,547.66,185a35,35,0,0,0,0-27A36.9,36.9,0,0,0,540,146.72Zm-3.16,33.79a25.21,25.21,0,0,1-5,7.46,22.85,22.85,0,0,1-7.46,5.09,24,24,0,0,1-9.13,1.76H503.6l-2.28,2.3v-51.3l2.28,2.3h11.67a24,24,0,0,1,9,1.76,24.5,24.5,0,0,1,7.47,5.09,24,24,0,0,1,5.09,7.46,23.13,23.13,0,0,1,0,18.08Z"/><path class="cls-3" d="M463.79,177.37a17.63,17.63,0,0,1-30.11,12.29,16.76,16.76,0,0,1-5-12.29v-41H417v41a29.23,29.23,0,0,0,49.85,20.72,28,28,0,0,0,8.61-20.72v-41H463.86Z"/><path class="cls-3" d="M574.4,194.84l-11.67,11.77V136.38L574.4,148Z"/><path class="cls-3" d="M647.49,146.75a34.53,34.53,0,0,1,0,49.48,35.09,35.09,0,0,1-59.83-24.74,35,35,0,0,1,59.83-24.74ZM606.17,155a23.41,23.41,0,1,0,16.58-6.84A22.44,22.44,0,0,0,606.17,155Z"/><polygon class="cls-3" points="369.71 136.38 346.39 136.38 346.39 148.14 369.71 148.14 369.71 206.6 381.48 206.6 381.48 148.14 404.82 148.14 404.82 136.38 369.71 136.38"/></g></g></g></svg>