<svg width="24" height="24" viewBox="0 0 24 24" fill="none" xmlns="http://www.w3.org/2000/svg">
<path d="M17.4999 9.00302C16.6047 9.00208 15.7233 9.22373 14.9349 9.64802C14.8629 9.45836 14.7349 9.29509 14.5679 9.17988C14.4009 9.06468 14.2028 9.003 13.9999 9.00302H9.99994C9.73472 9.00302 9.48037 9.10838 9.29283 9.29592C9.1053 9.48345 8.99994 9.73781 8.99994 10.003V22.003C8.99994 22.2682 9.1053 22.5226 9.29283 22.7101C9.48037 22.8977 9.73472 23.003 9.99994 23.003H13.9999C14.2652 23.003 14.5195 22.8977 14.707 22.7101C14.8946 22.5226 14.9999 22.2682 14.9999 22.003V16.503C14.9999 16.2378 15.1053 15.9835 15.2928 15.7959C15.4804 15.6084 15.7347 15.503 15.9999 15.503C16.2652 15.503 16.5195 15.6084 16.707 15.7959C16.8946 15.9835 16.9999 16.2378 16.9999 16.503V22.003C16.9999 22.2682 17.1053 22.5226 17.2928 22.7101C17.4804 22.8977 17.7347 23.003 17.9999 23.003H21.9999C22.2652 23.003 22.5195 22.8977 22.707 22.7101C22.8946 22.5226 22.9999 22.2682 22.9999 22.003V14.503C22.9981 13.0449 22.418 11.647 21.387 10.616C20.3559 9.58493 18.9581 9.00488 17.4999 9.00302ZM20.9999 21.003H18.9999V16.503C18.9999 15.7074 18.6839 14.9443 18.1213 14.3817C17.5587 13.8191 16.7956 13.503 15.9999 13.503C15.2043 13.503 14.4412 13.8191 13.8786 14.3817C13.316 14.9443 12.9999 15.7074 12.9999 16.503V21.003H10.9999V11.003H12.9999V11.706C12.9998 11.9133 13.0642 12.1155 13.184 12.2846C13.3038 12.4537 13.4732 12.5814 13.6688 12.6501C13.8644 12.7187 14.0765 12.7249 14.2757 12.6677C14.4749 12.6106 14.6515 12.4929 14.7809 12.331C15.2299 11.7611 15.8456 11.3456 16.542 11.1426C17.2385 10.9395 17.981 10.959 18.6659 11.1983C19.3507 11.4376 19.9438 11.8848 20.3622 12.4774C20.7807 13.07 21.0036 13.7786 20.9999 14.504V21.003ZM6.99994 9.00302H2.99994C2.73472 9.00302 2.48037 9.10838 2.29283 9.29592C2.1053 9.48345 1.99994 9.73781 1.99994 10.003V22.003C1.99994 22.2682 2.1053 22.5226 2.29283 22.7101C2.48037 22.8977 2.73472 23.003 2.99994 23.003H6.99994C7.26516 23.003 7.51951 22.8977 7.70705 22.7101C7.89458 22.5226 7.99994 22.2682 7.99994 22.003V10.003C7.99994 9.73781 7.89458 9.48345 7.70705 9.29592C7.51951 9.10838 7.26516 9.00302 6.99994 9.00302ZM5.99994 21.003H3.99994V11.003H5.99994V21.003ZM5.01494 1.54602C4.57703 1.51934 4.13828 1.58207 3.72538 1.73038C3.31249 1.87869 2.93411 2.10949 2.61327 2.40872C2.29243 2.70795 2.03585 3.06935 1.85915 3.47091C1.68245 3.87247 1.58933 4.3058 1.58545 4.7445C1.58158 5.1832 1.66704 5.61811 1.83662 6.02273C2.0062 6.42735 2.25637 6.79322 2.57187 7.09806C2.88738 7.40291 3.26163 7.64035 3.67184 7.79593C4.08205 7.95151 4.51963 8.02197 4.95794 8.00302H4.98594C5.4241 8.02806 5.86276 7.96362 6.27521 7.81363C6.68766 7.66365 7.06525 7.43126 7.38498 7.13063C7.70471 6.83 7.95989 6.46742 8.13496 6.06498C8.31003 5.66254 8.40134 5.22867 8.40331 4.78981C8.40528 4.35094 8.31788 3.91627 8.14643 3.51227C7.97498 3.10828 7.72307 2.74342 7.40605 2.43993C7.08903 2.13644 6.71354 1.90067 6.30246 1.74699C5.89137 1.5933 5.4533 1.52493 5.01494 1.54602ZM4.98594 6.00302H4.95794C4.78498 6.02414 4.60951 6.00802 4.44329 5.95576C4.27708 5.90349 4.12396 5.81628 3.99421 5.69999C3.86446 5.58369 3.76109 5.44098 3.69102 5.28145C3.62095 5.12192 3.5858 4.94925 3.58794 4.77502C3.58794 4.02802 4.14794 3.54602 5.01494 3.54602C5.18955 3.52304 5.36706 3.53771 5.53553 3.58903C5.70401 3.64035 5.85954 3.72713 5.99169 3.84355C6.12384 3.95998 6.22954 4.10334 6.30168 4.264C6.37382 4.42466 6.41073 4.59891 6.40994 4.77502C6.40994 5.52102 5.85094 6.00302 4.98594 6.00302Z" fill="#022456"/>
</svg>
