<svg width="204" height="15" viewBox="0 0 204 15" fill="none" xmlns="http://www.w3.org/2000/svg">
<g clip-path="url(#clip0_238_1681)">
<path d="M11.111 2.20552C10.4261 1.52669 9.61965 0.982013 8.73352 0.599716C7.81709 0.20365 6.82871 0.000172109 5.83 0.00196487H0.851644V0.0123786H0V14.9541H2.85342H5.83C6.82891 14.9578 7.81767 14.7542 8.73352 14.3563C9.62714 13.9778 10.4398 13.432 11.1277 12.7484C11.8012 12.0508 12.3448 11.239 12.7329 10.3512C13.1257 9.4427 13.3234 8.46218 13.3132 7.47281C13.3231 6.48414 13.1255 5.50435 12.7329 4.59652C12.3435 3.70718 11.7938 2.89674 11.111 2.20552ZM10.4368 9.39727C10.1786 9.98583 9.81662 10.5234 9.36808 10.9843C8.91522 11.4477 8.37454 11.8165 7.77751 12.0694C7.15849 12.3178 6.49718 12.4444 5.83 12.4423H3.33978L2.85134 12.9317V2.01599L3.33978 2.50127H5.83C6.49102 2.49995 7.14602 2.62656 7.75873 2.87408C8.35163 3.13448 8.89096 3.50242 9.3493 3.9592C9.80982 4.41585 10.1789 4.95589 10.4368 5.55042C10.6958 6.15875 10.8293 6.81291 10.8293 7.47385C10.8293 8.13479 10.6958 8.78895 10.4368 9.39727Z" fill="white"/>
<path d="M28.8724 0.393555H25.4429L19.1349 6.67098L18.112 7.68944L19.1349 8.69125L25.4429 14.9499H28.8724L21.5771 7.67278L28.8724 0.393555Z" fill="white"/>
<path d="M15.1396 0.343506V14.8999H17.9221V7.6394V0.343506H15.1396Z" fill="white"/>
<path d="M41.8266 7.98104C42.4 7.1806 42.7007 6.21764 42.6845 5.23389C42.692 4.59732 42.5696 3.96589 42.3249 3.37797C42.0802 2.79006 41.7182 2.25795 41.2609 1.814C40.8171 1.35625 40.284 0.994063 39.6945 0.749766C39.1051 0.505469 38.4717 0.384244 37.8334 0.393566H31.4336V14.9499H34.214V2.83247H37.8334C38.1498 2.82878 38.4635 2.88969 38.7553 3.01148C39.0472 3.13326 39.311 3.31333 39.5305 3.54061C39.7639 3.75628 39.9493 4.01843 40.0748 4.3101C40.2003 4.60178 40.263 4.9165 40.259 5.23389C40.265 5.55679 40.2034 5.87738 40.0779 6.17509C39.9525 6.4728 39.766 6.74103 39.5305 6.96257C39.3111 7.19013 39.0473 7.37052 38.7555 7.49266C38.4637 7.6148 38.1499 7.6761 37.8334 7.67279L35.6626 7.65405L39.8937 14.9437H42.6845L39.6933 9.72847C40.5635 9.37189 41.3065 8.76322 41.8266 7.98104Z" fill="white"/>
<path d="M45.922 0.397735H45.2707V14.9541L48.0532 14.9458H55.6345V12.5069H48.3391L48.0532 12.7714V8.88704H48.3391H55.6345V6.46688H48.3391H48.0532V2.53881L48.3391 2.82623H55.6345V0.389404" fill="white"/>
<path d="M108.082 0.397735H107.43V14.9541L110.211 14.9458H117.792V12.5069H110.499L110.211 12.7714V8.88704H110.499H117.792V6.46688H110.499H110.211V2.53881L110.499 2.82623H117.792V0.389404" fill="white"/>
<path d="M88.2745 12.5131L85.849 14.9499V0.393555L88.2745 2.79497V12.5131Z" fill="white"/>
<path d="M98.822 12.2215L104.75 0.393555H102.032L97.4589 9.50561L92.8813 0.393555H90.1636L96.4946 13.015L97.4548 14.9499L98.5256 12.813L98.8241 12.2236L98.822 12.2215Z" fill="white"/>
<path d="M75.9633 0.393555H71.1185V2.83246H75.9633V14.9499H78.4076V2.83246H83.2586V0.393555H75.9633Z" fill="white"/>
<path d="M70.3859 10.0929H70.3775L65.5181 0.393555L58.2228 14.9499H60.9218L62.1616 12.511L63.3661 10.1096L65.5181 5.83371L67.6431 10.0929H65.5411V12.5298H68.8913L70.0957 14.9499H72.8114L71.5903 12.5298" fill="white"/>
<path d="M138.693 10.7344C138.688 9.60377 138.235 8.52099 137.432 7.72309C136.629 6.9252 135.543 6.47721 134.409 6.47722H130.765C130.519 6.48241 130.275 6.43637 130.047 6.34206C129.82 6.24775 129.615 6.10722 129.446 5.92945C129.27 5.74972 129.134 5.53538 129.046 5.30012C128.958 5.06486 128.92 4.81387 128.934 4.56317C128.939 4.33988 128.986 4.11948 129.072 3.91335C129.161 3.70516 129.288 3.5152 129.446 3.35309C129.616 3.17713 129.823 3.04001 130.051 2.95112C130.142 2.91738 130.237 2.89228 130.333 2.87614C130.559 2.83348 130.788 2.81255 131.017 2.81365H137.037V0.374748H130.752C130.191 0.36612 129.634 0.473843 129.117 0.691101C128.599 0.908358 128.133 1.23042 127.747 1.6369C127.346 2.02557 127.028 2.49143 126.813 3.00624C126.597 3.52104 126.489 4.0741 126.494 4.6319C126.486 5.19562 126.593 5.75506 126.809 6.27632C127.024 6.79757 127.343 7.2698 127.747 7.66439C128.138 8.06771 128.607 8.3867 129.127 8.60164C129.646 8.81659 130.205 8.92291 130.767 8.91404H134.412C134.654 8.91121 134.895 8.95839 135.119 9.05264C135.343 9.14689 135.545 9.28618 135.712 9.46181C135.975 9.71346 136.155 10.0399 136.226 10.3968C136.298 10.7537 136.257 11.1238 136.111 11.4571C136.027 11.6779 135.896 11.8777 135.727 12.0423C135.556 12.2121 135.35 12.3428 135.123 12.4256C134.902 12.5172 134.666 12.5464 133.577 12.5464H128.118V14.9978H134.466C135.589 14.9841 136.663 14.5299 137.453 13.7334C138.244 12.9369 138.689 11.8619 138.693 10.7406V10.7344Z" fill="white"/>
<path d="M179.39 2.52421C178.72 1.8592 177.93 1.32578 177.063 0.951733C176.167 0.563215 175.2 0.363947 174.224 0.366479H169.35H168.515V14.9978H171.31H174.232C175.209 15.0022 176.176 14.8029 177.071 14.4126C177.946 14.0429 178.742 13.5099 179.417 12.8422C180.077 12.1613 180.611 11.3686 180.993 10.5012C181.377 9.61241 181.571 8.65317 181.561 7.68528C181.571 6.7174 181.377 5.75821 180.993 4.8694C180.61 3.99477 180.066 3.19936 179.39 2.52421ZM178.73 9.56184C178.478 10.1375 178.124 10.6637 177.687 11.1156C177.243 11.5685 176.714 11.9289 176.13 12.1757C175.524 12.4207 174.877 12.5452 174.224 12.5423H171.79L171.314 13.0213V2.33677L171.79 2.8158H174.228C174.872 2.81668 175.51 2.94113 176.107 3.18236C176.687 3.43619 177.215 3.7957 177.664 4.24249C178.113 4.68865 178.474 5.21589 178.726 5.79622C178.98 6.39173 179.11 7.03207 179.11 7.67903C179.11 8.326 178.98 8.96634 178.726 9.56184H178.73Z" fill="white"/>
<path d="M163.476 8.9077C163.476 9.38626 163.378 9.85981 163.19 10.2998C163.001 10.7397 162.725 11.1369 162.378 11.4674C161.871 11.9815 161.221 12.3331 160.513 12.4774C159.804 12.6216 159.069 12.552 158.4 12.2773C157.732 12.0026 157.16 11.5354 156.759 10.9352C156.358 10.335 156.145 9.62918 156.147 8.9077V0.368408H153.711V8.9077C153.699 9.70963 153.849 10.5057 154.155 11.2476C154.46 11.9895 154.914 12.6617 155.488 13.2232C156.636 14.3586 158.187 14.9956 159.803 14.9956C161.42 14.9956 162.971 14.3586 164.119 13.2232C164.7 12.6662 165.16 11.9953 165.469 11.2527C165.777 10.51 165.929 9.71164 165.914 8.9077V0.368408H163.491L163.476 8.9077Z" fill="white"/>
<path d="M186.566 12.5464L184.128 14.9978V0.370605L186.566 2.78452V12.5464Z" fill="white"/>
<path d="M201.821 2.53256C202.52 3.19493 203.075 3.99437 203.45 4.88072C203.825 5.76707 204.012 6.72119 204 7.68321C204.016 8.64605 203.83 9.60156 203.455 10.4888C203.08 11.376 202.523 12.1754 201.821 12.8359C201.146 13.5188 200.343 14.061 199.456 14.4311C198.57 14.8011 197.619 14.9917 196.658 14.9917C195.697 14.9917 194.746 14.8011 193.859 14.4311C192.973 14.061 192.169 13.5188 191.495 12.8359C190.798 12.1718 190.245 11.3715 189.872 10.485C189.498 9.59851 189.312 8.64477 189.324 7.68321C189.314 6.72221 189.501 5.76932 189.874 4.88341C190.248 3.99751 190.799 3.19741 191.495 2.53256C192.169 1.84924 192.973 1.30658 193.859 0.93617C194.745 0.565759 195.697 0.375 196.658 0.375C197.619 0.375 198.57 0.565759 199.457 0.93617C200.343 1.30658 201.147 1.84924 201.821 2.53256ZM193.196 4.24875C192.738 4.69489 192.377 5.22978 192.135 5.82046C191.893 6.41114 191.774 7.04508 191.787 7.68321C191.779 8.3235 191.9 8.95884 192.142 9.55189C192.384 10.1449 192.743 10.6837 193.196 11.1366C193.65 11.5895 194.19 11.9473 194.784 12.1891C195.378 12.4308 196.015 12.5516 196.657 12.5444C197.297 12.5565 197.932 12.4378 198.525 12.1957C199.117 11.9536 199.653 11.5931 200.101 11.1364C200.563 10.6892 200.929 10.1519 201.174 9.55783C201.42 8.96379 201.54 8.32571 201.529 7.68321C201.538 7.04388 201.416 6.40945 201.17 5.81885C200.925 5.22826 200.561 4.69396 200.101 4.24875C199.184 3.33658 197.943 2.82432 196.648 2.82432C195.354 2.82432 194.112 3.33658 193.196 4.24875Z" fill="white"/>
<path d="M143.84 0.370605H138.97V2.81993H143.84V14.9978H146.295V2.81993H151.169V0.370605H143.84Z" fill="white"/>
</g>
<defs>
<clipPath id="clip0_238_1681">
<rect width="204.001" height="14.9959" fill="white" transform="translate(0 0.00195312)"/>
</clipPath>
</defs>
</svg>
